<svg width="220" height="200" viewBox="0 0 220 200" fill="none" xmlns="http://www.w3.org/2000/svg">
<g clip-path="url(#clip0_62_2)">
<path d="M168.497 198.864C166.867 198.864 165.509 198.547 164.422 197.912C163.336 197.277 162.522 196.324 161.978 195.055L119.984 83.1034H106.117V193.197C106.117 194.648 105.483 195.963 104.215 197.142C102.948 198.321 101.318 198.911 99.3263 198.911H99.277H94.2195H94.1787H55.8152H6.72148C5.09159 198.911 3.64341 198.412 2.37615 197.414C1.10811 196.416 0.474487 195.011 0.474487 193.197V5.44222C0.474487 3.62805 1.15354 2.26743 2.51165 1.36035C3.86976 0.45327 5.45422 -0.000244141 7.26503 -0.000244141C8.89415 -0.000244141 10.4332 0.45327 11.8821 1.36035C13.3303 2.26743 14.0548 3.62805 14.0548 5.44222V185.85H55.8152H92.8083V75.9177C92.8083 74.2856 93.4419 72.9705 94.7092 71.9724C95.9764 70.975 97.5154 70.476 99.3263 70.476H99.4194H125.586H125.645C126.732 70.476 127.818 70.7483 128.904 71.292C129.991 71.8366 130.715 72.6527 131.078 73.741L168.565 176.943L205.504 75.7195C205.866 74.4499 206.409 73.3161 207.133 72.318C207.857 71.3206 209.125 70.8216 210.935 70.8216C212.022 70.8216 213.153 71.0484 214.331 71.5019C215.508 71.9554 216.549 72.6812 217.454 73.6786C218.36 74.6767 218.812 75.7195 218.812 76.8079C218.812 77.715 218.676 78.531 218.405 79.2568C218.133 79.9827 217.907 80.6174 217.726 81.162L174.744 195.055C174.2 196.143 173.386 197.05 172.299 197.775C171.213 198.501 169.945 198.864 168.497 198.864ZM99.5981 52.3004C96.8818 52.3004 94.4828 51.3023 92.4002 49.3069C90.3184 47.3115 89.2767 44.9535 89.2767 42.2322C89.2767 39.511 90.3184 37.2433 92.4002 35.4299C94.4828 33.6158 96.8818 32.7087 99.5981 32.7087C102.495 32.7087 104.894 33.6158 106.796 35.4299C108.697 37.2433 109.648 39.511 109.648 42.2322C109.648 44.9535 108.697 47.3115 106.796 49.3069C104.894 51.3023 102.495 52.3004 99.5981 52.3004Z" fill="#050002"/>
</g>
<defs>
<clipPath id="clip0_62_2">
<rect width="220" height="200" fill="white"/>
</clipPath>
</defs>
</svg>
